<svg width="73" height="19" viewBox="0 0 73 19" fill="none" xmlns="http://www.w3.org/2000/svg">
<rect x="0.75" y="0.75" width="71.5" height="17.5" rx="8.75" stroke="#016F2F" stroke-width="1.5"/>
<path d="M10.4281 13V6.45455H14.5318V7.30469H11.4157V9.29901H14.3176V10.146H11.4157V12.1499H14.5701V13H10.4281ZM17.6119 13.0959C17.2156 13.0959 16.8619 12.9947 16.5509 12.7923C16.2419 12.5877 15.999 12.2969 15.8222 11.9197C15.6475 11.5405 15.5601 11.0856 15.5601 10.555C15.5601 10.0245 15.6485 9.57067 15.8254 9.19354C16.0044 8.81641 16.2494 8.5277 16.5605 8.32741C16.8715 8.12713 17.2242 8.02699 17.6183 8.02699C17.923 8.02699 18.1681 8.07812 18.3534 8.1804C18.5409 8.28054 18.6858 8.39773 18.7881 8.53196C18.8925 8.66619 18.9735 8.78445 19.031 8.88672H19.0885V6.45455H20.0441V13H19.1109V12.2362H19.031C18.9735 12.3406 18.8904 12.4599 18.7817 12.5941C18.6752 12.7283 18.5281 12.8455 18.3406 12.9457C18.1531 13.0458 17.9102 13.0959 17.6119 13.0959ZM17.8229 12.2809C18.0977 12.2809 18.33 12.2085 18.5196 12.0636C18.7114 11.9165 18.8563 11.7131 18.9543 11.4531C19.0544 11.1932 19.1045 10.8906 19.1045 10.5455C19.1045 10.2045 19.0555 9.90625 18.9575 9.65057C18.8595 9.39489 18.7156 9.19567 18.526 9.05291C18.3364 8.91016 18.102 8.83878 17.8229 8.83878C17.5352 8.83878 17.2955 8.91335 17.1038 9.0625C16.912 9.21165 16.7671 9.41513 16.6691 9.67294C16.5732 9.93075 16.5253 10.2216 16.5253 10.5455C16.5253 10.8736 16.5743 11.1687 16.6723 11.4308C16.7703 11.6928 16.9152 11.9006 17.107 12.054C17.3009 12.2053 17.5395 12.2809 17.8229 12.2809ZM21.408 13V8.09091H22.3636V13H21.408ZM21.8906 7.33345C21.7244 7.33345 21.5817 7.27805 21.4624 7.16726C21.3452 7.05433 21.2866 6.9201 21.2866 6.76456C21.2866 6.60689 21.3452 6.47266 21.4624 6.36186C21.5817 6.24893 21.7244 6.19247 21.8906 6.19247C22.0568 6.19247 22.1985 6.24893 22.3157 6.36186C22.435 6.47266 22.4947 6.60689 22.4947 6.76456C22.4947 6.9201 22.435 7.05433 22.3157 7.16726C22.1985 7.27805 22.0568 7.33345 21.8906 7.33345ZM25.9408 8.09091V8.85795H23.2593V8.09091H25.9408ZM23.9784 6.91477H24.934V11.5586C24.934 11.744 24.9617 11.8835 25.0171 11.9773C25.0725 12.0689 25.1439 12.1317 25.2313 12.1658C25.3208 12.1978 25.4177 12.2138 25.5221 12.2138C25.5988 12.2138 25.6659 12.2085 25.7235 12.1978C25.781 12.1871 25.8257 12.1786 25.8577 12.1722L26.0303 12.9616C25.9749 12.983 25.896 13.0043 25.7938 13.0256C25.6915 13.049 25.5637 13.0618 25.4102 13.0639C25.1588 13.0682 24.9244 13.0234 24.7071 12.9297C24.4898 12.8359 24.314 12.6911 24.1798 12.495C24.0455 12.299 23.9784 12.0529 23.9784 11.7567V6.91477ZM29.4564 13V6.45455H31.7895C32.2987 6.45455 32.7206 6.54723 33.0551 6.7326C33.3896 6.91797 33.64 7.17152 33.8062 7.49325C33.9724 7.81286 34.0555 8.17294 34.0555 8.57351C34.0555 8.97621 33.9713 9.33842 33.803 9.66016C33.6368 9.97976 33.3854 10.2333 33.0487 10.4208C32.7142 10.6062 32.2934 10.6989 31.7863 10.6989H30.1819V9.86151H31.6968C32.0186 9.86151 32.2796 9.80611 32.4798 9.69531C32.6801 9.58239 32.8271 9.42898 32.9209 9.23509C33.0146 9.04119 33.0615 8.82067 33.0615 8.57351C33.0615 8.32635 33.0146 8.10689 32.9209 7.91513C32.8271 7.72337 32.6791 7.57315 32.4767 7.46449C32.2764 7.35582 32.0122 7.30149 31.684 7.30149H30.444V13H29.4564ZM35.1365 13V8.09091H36.0602V8.87074H36.1113C36.2008 8.60653 36.3585 8.39879 36.5843 8.24751C36.8123 8.0941 37.0701 8.0174 37.3578 8.0174C37.4174 8.0174 37.4877 8.01953 37.5687 8.02379C37.6518 8.02805 37.7168 8.03338 37.7637 8.03977V8.95384C37.7253 8.94318 37.6571 8.93146 37.5591 8.91868C37.4611 8.90376 37.3631 8.89631 37.2651 8.89631C37.0392 8.89631 36.8379 8.94425 36.661 9.04013C36.4863 9.13388 36.3478 9.26491 36.2456 9.43324C36.1433 9.59943 36.0922 9.78906 36.0922 10.0021V13H35.1365ZM40.4827 13.0991C40.0225 13.0991 39.6208 12.9936 39.2778 12.7827C38.9347 12.5717 38.6684 12.2766 38.4788 11.8974C38.2892 11.5181 38.1943 11.0749 38.1943 10.5678C38.1943 10.0586 38.2892 9.61328 38.4788 9.23189C38.6684 8.8505 38.9347 8.55433 39.2778 8.34339C39.6208 8.13246 40.0225 8.02699 40.4827 8.02699C40.9429 8.02699 41.3445 8.13246 41.6876 8.34339C42.0306 8.55433 42.297 8.8505 42.4866 9.23189C42.6762 9.61328 42.771 10.0586 42.771 10.5678C42.771 11.0749 42.6762 11.5181 42.4866 11.8974C42.297 12.2766 42.0306 12.5717 41.6876 12.7827C41.3445 12.9936 40.9429 13.0991 40.4827 13.0991ZM40.4859 12.2969C40.7842 12.2969 41.0313 12.218 41.2274 12.0604C41.4234 11.9027 41.5683 11.6928 41.662 11.4308C41.7579 11.1687 41.8058 10.88 41.8058 10.5646C41.8058 10.2514 41.7579 9.96378 41.662 9.7017C41.5683 9.4375 41.4234 9.2255 41.2274 9.0657C41.0313 8.90589 40.7842 8.82599 40.4859 8.82599C40.1855 8.82599 39.9362 8.90589 39.738 9.0657C39.542 9.2255 39.396 9.4375 39.3002 9.7017C39.2064 9.96378 39.1595 10.2514 39.1595 10.5646C39.1595 10.88 39.2064 11.1687 39.3002 11.4308C39.396 11.6928 39.542 11.9027 39.738 12.0604C39.9362 12.218 40.1855 12.2969 40.4859 12.2969ZM46.174 8.09091V8.85795H43.3999V8.09091H46.174ZM44.1605 13V7.52202C44.1605 7.2152 44.2276 6.96058 44.3619 6.75817C44.4961 6.55362 44.674 6.40128 44.8956 6.30114C45.1172 6.19886 45.358 6.14773 45.6179 6.14773C45.8097 6.14773 45.9737 6.16371 46.1101 6.19567C46.2464 6.2255 46.3477 6.2532 46.4137 6.27876L46.19 7.0522C46.1452 7.03942 46.0877 7.0245 46.0174 7.00746C45.9471 6.98828 45.8619 6.97869 45.7617 6.97869C45.5295 6.97869 45.3633 7.03622 45.2631 7.15128C45.1651 7.26634 45.1161 7.43253 45.1161 7.64986V13H44.1605ZM47.16 13V8.09091H48.1156V13H47.16ZM47.6426 7.33345C47.4764 7.33345 47.3336 7.27805 47.2143 7.16726C47.0971 7.05433 47.0385 6.9201 47.0385 6.76456C47.0385 6.60689 47.0971 6.47266 47.2143 6.36186C47.3336 6.24893 47.4764 6.19247 47.6426 6.19247C47.8088 6.19247 47.9505 6.24893 48.0676 6.36186C48.187 6.47266 48.2466 6.60689 48.2466 6.76456C48.2466 6.9201 48.187 7.05433 48.0676 7.16726C47.9505 7.27805 47.8088 7.33345 47.6426 7.33345ZM50.3568 6.45455V13H49.4012V6.45455H50.3568Z" fill="#016F2F"/>
<path d="M56.5882 7.11768H56.0588C55.778 7.11768 55.5087 7.22923 55.3101 7.4278C55.1116 7.62636 55 7.89568 55 8.17649V12.9412C55 13.222 55.1116 13.4913 55.3101 13.6899C55.5087 13.8884 55.778 14 56.0588 14H60.8235C61.1043 14 61.3736 13.8884 61.5722 13.6899C61.7708 13.4913 61.8823 13.222 61.8823 12.9412V12.4118" stroke="#016F2F" stroke-linecap="round" stroke-linejoin="round"/>
<path d="M61.3528 6.05887L62.9411 7.6471M63.6743 6.89799C63.8828 6.68948 63.9999 6.40669 63.9999 6.11181C63.9999 5.81694 63.8828 5.53415 63.6743 5.32564C63.4658 5.11714 63.183 5 62.8881 5C62.5932 5 62.3105 5.11714 62.1019 5.32564L57.647 9.76473V11.353H59.2352L63.6743 6.89799Z" stroke="#016F2F" stroke-linecap="round" stroke-linejoin="round"/>
</svg>
