<svg width="11" height="11" viewBox="0 0 11 11" fill="none" xmlns="http://www.w3.org/2000/svg">
<path d="M2.58823 3.11768H2.05882C1.778 3.11768 1.50869 3.22923 1.31012 3.4278C1.11155 3.62636 1 3.89568 1 4.17649V8.94117C1 9.22198 1.11155 9.4913 1.31012 9.68987C1.50869 9.88843 1.778 9.99999 2.05882 9.99999H6.82349C7.10431 9.99999 7.37362 9.88843 7.57219 9.68987C7.77076 9.4913 7.88231 9.22198 7.88231 8.94117V8.41176" stroke="#016F2F" stroke-linecap="round" stroke-linejoin="round"/>
<path d="M7.35283 2.05887L8.94106 3.6471M9.67429 2.89799C9.88279 2.68948 9.99993 2.40669 9.99993 2.11181C9.99993 1.81694 9.88279 1.53415 9.67429 1.32564C9.46578 1.11714 9.18299 1 8.88812 1C8.59324 1 8.31045 1.11714 8.10195 1.32564L3.64697 5.76473V7.35296H5.2352L9.67429 2.89799Z" stroke="#016F2F" stroke-linecap="round" stroke-linejoin="round"/>
</svg>
