<svg width="256" height="400" viewBox="0 0 100 100" xmlns="http://www.w3.org/2000/svg">
  <rect width="100" height="100" fill="none"/>

  <!-- Tambahan: definisi marker panah abu-abu -->
  <defs>
    <marker id="arrow-down" viewBox="0 0 10 10"
            refX="18" refY="10"
            markerWidth="6" markerHeight="6"
            orient="auto">
      <path d="M 0 0 L 10 5 L 0 10 Z" fill="#016F2F"/>
    </marker>
  </defs>

  <!-- Tambahan: garis vertikal dengan panah mengarah ke bawah -->
  <line x1="60" y1="8" x2="60" y2="24"
        stroke="#" stroke-width="2"
        marker-end="url(#arrow-down)"/>

  <path d="M 25,90 L 20,40 L 80,40 L 75,90 Z" fill="#666666"/>
  <path d="M 20,40 L 80,40 L 70,30 L 30,30 Z" fill="#444444"/>
  <path d="M 30,30 L 70,30 L 72,32 L 28,32 Z" fill="#777777"/>
  
  <g transform="translate(35, 10) rotate(30)">
    <path d="M -7,15 C -8,5 -8,-5 -7,-15 L 7,-15 C 8,-5 8,5 7,15 Z" fill="#FFE200"/>
    <path d="M -7,-15 L -5,-25 L 5,-25 L 7,-15 Z" fill="#FFE200"/>
  </g>
</svg>
