<svg width="126" height="126" viewBox="0 0 126 126" fill="none" xmlns="http://www.w3.org/2000/svg">
<g filter="url(#filter0_d_319_454)">
<path d="M9.55648 82.2981C5.39572 75.6375 10.1843 67 18.0377 67H81.1047C84.175 67 87.0751 68.4104 88.9709 70.8256L113.304 101.826C118.455 108.388 113.78 118 105.438 118H37.4029C33.9542 118 30.7489 116.223 28.9217 113.298L9.55648 82.2981Z" fill="#016F2F"/>
</g>
<path d="M72.0314 20.2551C71.5426 19.3405 71.2859 18.3101 71.2856 17.262V6.06667C71.2856 5.25334 70.977 4.47332 70.4278 3.89821C69.8786 3.32309 69.1337 3 68.357 3H56.643C55.8663 3 55.1214 3.32309 54.5722 3.89821C54.023 4.47332 53.7144 5.25334 53.7144 6.06667V17.262C53.7141 18.3101 53.4574 19.3405 52.9686 20.2551L46.686 32.0188C43.6275 37.1039 42.0032 42.9904 42.0004 49V87.1616C41.9858 88.5306 42.415 89.8643 43.2178 90.9449C44.0207 92.0255 45.1497 92.7891 46.4205 93.1109C57.0022 95.6297 67.9939 95.6297 78.5795 93.1109C79.8503 92.7891 80.9793 92.0255 81.7822 90.9449C82.585 89.8643 83.0142 88.5306 82.9996 87.1616V49C82.9996 42.9893 81.3753 37.1013 78.314 32.0188L72.0314 20.2551ZM53.7144 15.2667H71.2856H53.7144Z" fill="#FFE200"/>
<path d="M53.7144 15.2667H71.2856M72.0314 20.2551C71.5426 19.3405 71.2859 18.3101 71.2856 17.262V6.06667C71.2856 5.25334 70.977 4.47332 70.4278 3.89821C69.8786 3.32309 69.1337 3 68.357 3H56.643C55.8663 3 55.1214 3.32309 54.5722 3.89821C54.023 4.47332 53.7144 5.25334 53.7144 6.06667V17.262C53.7141 18.3101 53.4574 19.3405 52.9686 20.2551L46.686 32.0188C43.6275 37.1039 42.0032 42.9904 42.0004 49V87.1616C41.9858 88.5306 42.415 89.8643 43.2178 90.9449C44.0207 92.0255 45.1497 92.7891 46.4205 93.1109C57.0022 95.6297 67.9939 95.6297 78.5795 93.1109C79.8503 92.7891 80.9793 92.0255 81.7822 90.9449C82.585 89.8643 83.0142 88.5306 82.9996 87.1616V49C82.9996 42.9893 81.3753 37.1013 78.314 32.0188L72.0314 20.2551Z" stroke="#FFE200" stroke-width="5" stroke-linecap="round" stroke-linejoin="round"/>
<defs>
<filter id="filter0_d_319_454" x="4.02148" y="67" width="115.435" height="59" filterUnits="userSpaceOnUse" color-interpolation-filters="sRGB">
<feFlood flood-opacity="0" result="BackgroundImageFix"/>
<feColorMatrix in="SourceAlpha" type="matrix" values="0 0 0 0 0 0 0 0 0 0 0 0 0 0 0 0 0 0 127 0" result="hardAlpha"/>
<feOffset dy="4"/>
<feGaussianBlur stdDeviation="2"/>
<feComposite in2="hardAlpha" operator="out"/>
<feColorMatrix type="matrix" values="0 0 0 0 0 0 0 0 0 0 0 0 0 0 0 0 0 0 0.25 0"/>
<feBlend mode="normal" in2="BackgroundImageFix" result="effect1_dropShadow_319_454"/>
<feBlend mode="normal" in="SourceGraphic" in2="effect1_dropShadow_319_454" result="shape"/>
</filter>
</defs>
</svg>
