<svg width="105" height="108" viewBox="0 0 105 108" fill="none" xmlns="http://www.w3.org/2000/svg">
<g filter="url(#filter0_d_319_452)">
<path d="M9.64502 72.5C9.64502 72.5 23.7987 58.5671 25.6473 57.6688C27.496 56.7705 51.8793 44.8457 51.8793 44.8457L45.0837 79.3574C45.0837 79.3574 7.14489 104.289 6.14498 97C5.14506 89.7109 9.64502 72.5 9.64502 72.5Z" fill="white" stroke="#016F2F" stroke-width="3" stroke-miterlimit="10"/>
<path d="M95.1174 8.03752L61.9623 1.90455C59.2616 1.40498 56.6673 3.18936 56.1677 5.89007L41.5031 85.1679C41.0035 87.8686 42.7879 90.4629 45.4886 90.9625L78.6437 97.0954C81.3444 97.595 83.9387 95.8106 84.4383 93.1099L99.1029 13.8321C99.6025 11.1314 97.8181 8.53709 95.1174 8.03752Z" fill="white" stroke="#016F2F" stroke-width="2" stroke-miterlimit="10"/>
<path d="M65.9253 24.9725L60.8252 24L59.6475 30.213" stroke="#FFE200" stroke-width="2" stroke-miterlimit="10"/>
<path d="M84.4673 28.4839L89.5565 29.4455L88.3896 35.6477" stroke="#FFE200" stroke-width="2" stroke-miterlimit="10"/>
<path d="M59.7337 57.658L54.6445 56.6856L55.8115 50.4834" stroke="#FFE200" stroke-width="2" stroke-miterlimit="10"/>
<path d="M78.2754 61.1697L83.3754 62.1313L84.5532 55.9292" stroke="#FFE200" stroke-width="2" stroke-miterlimit="10"/>
<path d="M97.99 20.0593L99.1357 13.8235C99.2578 13.1812 99.2515 12.5212 99.117 11.8814C98.9825 11.2416 98.7225 10.6348 98.3521 10.0961C97.9816 9.55739 97.5081 9.09746 96.9588 8.74288C96.4096 8.38831 95.7955 8.14614 95.1521 8.03034L61.9943 1.89871C60.6978 1.65918 59.3594 1.94422 58.273 2.69122C57.1867 3.43822 56.4414 4.58604 56.2011 5.88232L55.0425 12.1181L97.99 20.0593Z" fill="#016F2F"/>
<path d="M42.2588 81.3105L41.5428 85.1509C41.4248 85.7983 41.436 86.4626 41.5759 87.1055C41.7159 87.7485 41.9817 88.3574 42.3581 88.8971C42.7344 89.4369 43.2139 89.8968 43.7689 90.2503C44.3238 90.6039 44.9432 90.8441 45.5915 90.9571L78.7492 97.0888C79.3921 97.2073 80.052 97.1978 80.6912 97.061C81.3304 96.9242 81.9364 96.6627 82.4744 96.2915C83.0125 95.9203 83.4721 95.4467 83.8269 94.8977C84.1818 94.3487 84.4249 93.7352 84.5424 93.0921L85.2584 89.1866L42.2588 81.3105Z" fill="#016F2F"/>
<path d="M31.4798 66.1572C31.4798 66.1572 43.0922 67.8887 46.6723 68.5526C50.2523 69.2165 64.6116 64.8814 65.8353 67.1596C67.059 69.4378 65.2755 72.367 61.9298 74.6712C58.5841 76.9755 45.0059 79.3579 45.0059 79.3579C42.0874 84.0319 37.6596 87.5685 32.4562 89.382C24.1635 91.9857 11.0801 91.5951 11.0801 91.5951" fill="white"/>
<path d="M31.4798 66.1572C31.4798 66.1572 43.0922 67.8887 46.6723 68.5526C50.2523 69.2165 64.6116 64.8814 65.8353 67.1596C67.059 69.4378 65.2755 72.367 61.9298 74.6712C58.5841 76.9755 45.0059 79.3579 45.0059 79.3579C42.0874 84.0319 37.6596 87.5685 32.4562 89.382C24.1635 91.9857 11.0801 91.5951 11.0801 91.5951" stroke="#016F2F" stroke-width="3" stroke-miterlimit="10" stroke-linecap="round"/>
</g>
<defs>
<filter id="filter0_d_319_452" x="0.5" y="0.820312" width="103.687" height="107.015" filterUnits="userSpaceOnUse" color-interpolation-filters="sRGB">
<feFlood flood-opacity="0" result="BackgroundImageFix"/>
<feColorMatrix in="SourceAlpha" type="matrix" values="0 0 0 0 0 0 0 0 0 0 0 0 0 0 0 0 0 0 127 0" result="hardAlpha"/>
<feOffset dy="4"/>
<feGaussianBlur stdDeviation="2"/>
<feComposite in2="hardAlpha" operator="out"/>
<feColorMatrix type="matrix" values="0 0 0 0 0 0 0 0 0 0 0 0 0 0 0 0 0 0 0.25 0"/>
<feBlend mode="normal" in2="BackgroundImageFix" result="effect1_dropShadow_319_452"/>
<feBlend mode="normal" in="SourceGraphic" in2="effect1_dropShadow_319_452" result="shape"/>
</filter>
</defs>
</svg>
